<?xml version="1.0" encoding="utf-8"?>
<svg xmlns="http://www.w3.org/2000/svg" viewBox="0 0 500 500">
  <path stroke="rgb(255,0,0)" stroke-width="0" d="M 218.829 226.134 C 224.978 224.709 234.857 224.779 243.637 225.56 C 242.873 222.117 242.69 218.251 243.322 215.22 C 244.387 210.116 249.719 203.408 252.346 201.04 C 253.914 199.626 254.608 199.669 256.643 199.321 C 259.788 198.783 266.196 198.527 270.393 199.321 C 274.31 200.062 278.48 201.223 281.136 203.618 C 283.752 205.978 285.432 209.994 286.292 213.501 C 286.32 213.616 286.348 213.732 286.375 213.849 C 294.513 215.154 306.045 218.467 307.683 220.797 C 308.997 222.667 307.432 225.629 304.675 227.243 C 301.586 229.051 291.414 230.571 282.919 231.115 C 281.398 233.225 279.497 235.121 277.268 236.275 C 276.249 236.803 275.015 237.239 273.648 237.589 C 273.667 237.61 273.685 237.63 273.704 237.65 C 276.474 240.648 279.349 245.137 280.58 250.112 C 282.007 255.882 282.581 264.946 280.58 270.737 C 278.722 276.111 274.722 280.19 269.837 284.058 C 265.655 287.368 259.705 290.782 253.781 293.144 C 250.099 295.764 245.973 297.976 241.174 299.183 C 235.208 300.683 226.575 300.796 220.548 300.043 C 215.329 299.39 211.22 298.264 206.798 295.746 C 201.87 292.94 195.709 287.486 192.617 283.284 C 190.111 279.878 189.091 276.982 188.32 272.972 C 187.424 268.304 186.731 262.19 188.32 256.643 C 190.129 250.332 194.797 242.404 199.922 237.306 C 204.993 232.263 210.713 228.015 218.829 226.134 Z" style="stroke: rgb(129, 151, 57); stroke-width: 2px; paint-order: fill; fill: rgb(212, 197, 68); transform-box: fill-box; transform-origin: 48.2658% 51.9959%;" transform="matrix(0.999877, -0.015699, 0.015699, 0.999877, 0, 0)"/>
  <ellipse style="stroke: rgb(0, 0, 0); transform-box: fill-box; transform-origin: -159.556% 857.706%;" cx="265.383" cy="100.034" rx="6.188" ry="2.406" transform="matrix(0.999877, -0.015699, 0.015699, 0.999877, 6.21994, 112.786321)"/>
</svg>